<?xml version="1.0" encoding="utf-8"?>
<!-- Generator: Adobe Illustrator 22.1.0, SVG Export Plug-In . SVG Version: 6.00 Build 0)  -->
<svg version="1.1" id="Calque_1" xmlns="http://www.w3.org/2000/svg" xmlns:xlink="http://www.w3.org/1999/xlink" x="0px" y="0px"
	 viewBox="0 0 64.4 71" style="enable-background:new 0 0 64.4 71;" xml:space="preserve">
<style type="text/css">
	.st0{fill:#284E68;}
</style>
<g id="Layer_3">
</g>
<g id="Layer_1">
	<g id="slack">
		<rect x="28.3" y="30.3" transform="matrix(0.9482 -0.3176 0.3176 0.9482 -9.167 12.0125)" class="st0" width="7.9" height="7.6"/>
		<g>
			
				<rect x="28.3" y="30.3" transform="matrix(0.9482 -0.3176 0.3176 0.9482 -9.167 12.0126)" class="st0" width="7.9" height="7.6"/>
			<path class="st0" d="M57.9,26.5C52.1,7.3,43.8,2.8,24.5,8.5C5.3,14.3,0.8,22.6,6.5,41.9c5.8,19.2,14.1,23.7,33.4,18
				C59.2,54.1,63.7,45.7,57.9,26.5z M48.2,39l-3.6,1.2l1.3,3.8c0.5,1.5-0.3,3.2-1.8,3.7c-0.3,0.1-0.7,0.2-1,0.2
				c-1.2,0-2.3-0.8-2.7-2L39,42.1l-7.5,2.5l1.3,3.8c0.5,1.5-0.3,3.2-1.8,3.7c-0.3,0.1-0.7,0.2-1,0.2c-1.2,0-2.3-0.8-2.7-2L26,46.5
				l-3.6,1.2c-0.3,0.1-0.7,0.2-1,0.2c-1.2,0-2.3-0.8-2.7-2c-0.5-1.5,0.3-3.2,1.8-3.7l3.6-1.2l-2.4-7.2L18.1,35
				c-0.3,0.1-0.7,0.2-1,0.2c-1.2,0-2.3-0.8-2.7-2c-0.5-1.5,0.3-3.2,1.8-3.7l3.6-1.2l-1.3-3.8c-0.5-1.5,0.3-3.2,1.8-3.7
				s3.2,0.3,3.7,1.8l1.3,3.8l7.5-2.5l-1.1-3.8c-0.5-1.5,0.3-3.2,1.8-3.7s3.2,0.3,3.7,1.8l1.3,3.8l3.6-1.2c1.5-0.5,3.2,0.3,3.7,1.8
				s-0.3,3.2-1.8,3.7l-3.7,1.2l2.4,7.2l3.6-1.2c1.5-0.5,3.2,0.3,3.7,1.8S49.7,38.5,48.2,39z"/>
		</g>
	</g>
</g>
</svg>
